<svg height="512pt" viewBox="0 0 512 512" width="512pt" xmlns="http://www.w3.org/2000/svg"><path d="m372.21875 80.242188c-8.140625-.152344-7.417969 1.132812-6.449219-1.003907 10.28125-22.75 17.117188-65.738281-6.53125-76.609375-24.355469-11.199218-70.875 30.070313-72.167969 84.0625-117.542968-40.035156-175.5625 112.671875-94.109374 230.285156 29.023437 41.980469 50.90625 60.855469 96.070312 41.613282 39.882812-16.996094 45.265625 7.757812 79.25 7.757812 47.816406 0 90.398438-83.050781 99.917969-136.980468 15.933593-90.25-34.429688-148.210938-95.980469-149.125zm-48.285156-21.3125c4.316406-9.132813 12.113281-18.351563 20.855468-24.949219.589844 10.789062-1.613281 22.410156-6.347656 32.882812-4.699218 10.351563-12.554687 19.507813-21.335937 25.152344-.703125-12.261719 2.800781-24.691406 6.828125-33.085937zm84.292968 240.988281c-45.980468 66.503906-47.234374 21.824219-95.292968 22.535156-47.367188-.703125-49.648438 43.480469-95.300782-22.546875-52.605468-75.960938-42.21875-188.5 36.558594-189.667969 9.636719-.171875 21.265625 4.070313 31.535156 7.820313 25.308594 9.234375 29.585938 9.238281 54.707032-.019532 102.425781-37.75 129.128906 93.3125 67.792968 181.878907zm0 0"/><path d="m491.40625 404.601562h-383.1875v-384.015624c0-11.351563-9.238281-20.585938-20.59375-20.585938h-67.03125c-11.355469 0-20.59375 9.234375-20.59375 20.585938v471.570312c0 10.941406 8.90625 19.84375 19.855469 19.84375h471.550781c11.355469 0 20.59375-9.234375 20.59375-20.582031v-66.234375c0-11.351563-9.238281-20.582032-20.59375-20.582032zm-9.40625 77.398438h-452v-452h48.21875v33.242188h-20.675781c-8.285157 0-15 6.71875-15 15 0 8.285156 6.714843 15 15 15h20.675781v40.167968h-20.675781c-8.285157 0-15 6.71875-15 15 0 8.285156 6.714843 15 15 15h20.675781v40.167969h-20.675781c-8.285157 0-15 6.714844-15 15s6.714843 15 15 15h20.675781v40.167969h-20.675781c-8.285157 0-15 6.714844-15 15 0 8.28125 6.714843 15 15 15h20.675781v38.164062h-20.675781c-8.285157 0-15 6.71875-15 15 0 8.285156 6.714843 15 15 15h20.675781v46.828125c0 8.746094 7.117188 15.859375 15.859375 15.859375h42.917969v20.714844c0 8.28125 6.71875 15 15 15 8.285156 0 15-6.71875 15-15v-20.710938h40.304687v20.710938c0 8.285156 6.714844 15 15 15 8.285157 0 15-6.714844 15-15v-20.710938h40.300781v20.710938c0 8.285156 6.71875 15 15 15 8.285157 0 15-6.714844 15-15v-20.710938h40.304688v20.710938c0 8.285156 6.714844 15 15 15s15-6.714844 15-15v-20.710938h38.296875v20.710938c0 8.285156 6.71875 15 15 15 8.285156 0 15-6.714844 15-15v-20.710938h35.796875zm0 0"/></svg>