<svg id="Layer_5" enable-background="new 0 0 64 64" height="512" viewBox="0 0 64 64" width="512" xmlns="http://www.w3.org/2000/svg"><g><g><g><path d="m1 28h7v8h-7z" fill="#969faa"/></g><g><path d="m56 28h7v8h-7z" fill="#969faa"/></g><g><path d="m8 18c0-1.66.67-3.16 1.76-4.24 1.08-1.09 2.58-1.76 4.24-1.76 1.1 0 2 .9 2 2v36c0 1.1-.9 2-2 2-3.31 0-6-2.69-6-6v-10-8z" fill="#ccd1d9"/></g><g><path d="m56 36v10c0 3.31-2.69 6-6 6-1.1 0-2-.9-2-2v-36c0-1.1.9-2 2-2 1.66 0 3.16.67 4.24 1.76 1.09 1.08 1.76 2.58 1.76 4.24v10z" fill="#ccd1d9"/></g><g><path d="m37 9-3.5 6.13c-.31.54-.88.87-1.5.87s-1.19-.33-1.5-.87l-3.5-6.13h3v-8h4v8z" fill="#ffeaa7"/></g><g><path d="m33.5 48.87 3.5 6.13h-3v8h-4v-8h-3l3.5-6.13c.31-.54.88-.87 1.5-.87s1.19.33 1.5.87z" fill="#ffeaa7"/></g><g><path d="m42 20h-20c-1.1 0-2 .9-2 2v20c0 1.1.9 2 2 2h20c1.1 0 2-.9 2-2v-20c0-1.1-.9-2-2-2z" fill="#fcd770"/></g></g><g><path d="m32 47c-.975 0-1.881.526-2.364 1.372l-4.36 7.628h3.724v7h2v-9h-2.276l2.648-4.636c.258-.449.998-.449 1.256 0l2.648 4.636h-2.276v9h2v-7h3.724l-4.359-7.628c-.484-.846-1.39-1.372-2.365-1.372z"/><path d="m32 17c.975 0 1.881-.526 2.364-1.372l4.36-7.628h-3.724v-7h-2v9h2.276l-2.648 4.636c-.258.449-.998.449-1.256 0l-2.648-4.636h2.276v-9h-2v7h-3.724l4.359 7.628c.484.846 1.39 1.372 2.365 1.372z"/><path d="m42 19h-20c-1.654 0-3 1.346-3 3v20c0 1.654 1.346 3 3 3h20c1.654 0 3-1.346 3-3v-20c0-1.654-1.346-3-3-3zm-20 2h20c.552 0 1 .449 1 1v5h-22v-5c0-.551.448-1 1-1zm21 8v6h-22v-6zm-1 14h-20c-.552 0-1-.449-1-1v-5h22v5c0 .551-.448 1-1 1z"/><path d="m23 23h2v2h-2z"/><path d="m27 23h2v2h-2z"/><path d="m31 23h2v2h-2z"/><path d="m23 39h2v2h-2z"/><path d="m31 39h2v2h-2z"/><path d="m27 39h2v2h-2z"/><path d="m31 31h2v2h-2z"/><path d="m35 31h2v2h-2z"/><path d="m39 31h2v2h-2z"/><path d="m63 29v-2h-6v-9c0-3.86-3.141-7-7-7-1.654 0-3 1.346-3 3v36c0 1.654 1.346 3 3 3 3.859 0 7-3.14 7-7v-9h6v-2h-6v-6zm-8 17c0 2.757-2.243 5-5 5-.552 0-1-.449-1-1v-36c0-.551.448-1 1-1 2.757 0 5 2.243 5 5z"/><path d="m14 11c-3.859 0-7 3.14-7 7v9h-6v2h6v6h-6v2h6v9c0 3.86 3.141 7 7 7 1.654 0 3-1.346 3-3v-36c0-1.654-1.346-3-3-3zm1 39c0 .551-.448 1-1 1-2.757 0-5-2.243-5-5v-28c0-2.757 2.243-5 5-5 .552 0 1 .449 1 1z"/><path d="m11 19h2v2h-2z"/><path d="m11 15h2v2h-2z"/><path d="m11 23h2v2h-2z"/><path d="m51 42h2v2h-2z"/><path d="m51 38h2v2h-2z"/><path d="m51 46h2v2h-2z"/></g></g></svg>