<svg id="Layer_1" enable-background="new 0 0 512 512" height="512" viewBox="0 0 512 512" width="512" xmlns="http://www.w3.org/2000/svg"><g><path d="m289.31 208.552-21.22 21.21c-3.9 3.91-3.9 10.24 0 14.15 1.96 1.95 4.52 2.92 7.08 2.92 2.55 0 5.11-.97 7.07-2.92l21.21-21.22c3.9-3.9 3.9-10.23 0-14.14-3.91-3.901-10.24-3.901-14.14 0z"/><path d="m236.27 261.581-21.21 21.22c-3.9 3.9-3.9 10.23 0 14.14 1.95 1.95 4.51 2.93 7.07 2.93s5.12-.98 7.07-2.93l21.22-21.21c3.9-3.91 3.9-10.24 0-14.15-3.91-3.9-10.24-3.9-14.15 0z"/><path d="m24.142 473.72-21.21 21.21c-3.91 3.9-3.91 10.24 0 14.14 1.95 1.95 4.51 2.93 7.07 2.93s5.12-.98 7.07-2.93l21.21-21.21c3.91-3.91 3.91-10.24 0-14.14-3.9-3.91-10.23-3.91-14.14 0z"/><path d="m183.241 314.621-21.21 21.21c-3.91 3.9-3.91 10.24 0 14.14 1.95 1.95 4.51 2.93 7.07 2.93s5.12-.98 7.07-2.93l21.21-21.21c3.91-3.91 3.91-10.24 0-14.14-3.9-3.91-10.23-3.91-14.14 0z"/><path d="m509.068 2.932c-3.9-3.91-10.24-3.91-14.14 0l-14.7 14.7c-3.91 3.91-3.91 10.24 0 14.14 1.95 1.96 4.51 2.93 7.07 2.93s5.12-.97 7.07-2.93l14.7-14.7c3.909-3.9 3.909-10.24 0-14.14z"/><path d="m356.479 155.522c-3.9-3.91-10.24-3.91-14.14 0l-21.21 21.21c-3.91 3.91-3.91 10.24 0 14.14 1.95 1.96 4.51 2.93 7.07 2.93s5.12-.97 7.07-2.93l21.21-21.21c3.91-3.91 3.91-10.24 0-14.14z"/><path d="m487.498 367.341h-34v-50.84c0-5.51-4.49-10-10-10s-10 4.49-10 10v160.999h-46.16v-342.838c0-2.63-1.07-5.21-2.93-7.07s-4.44-2.93-7.07-2.93h-342.836v-46.16h398.996v147.999c0 5.51 4.49 10 10 10s10-4.49 10-10v-153.859l9.05-9.05c3.9-3.9 3.9-10.23 0-14.14-3.91-3.9-10.24-3.9-14.14 0l-9.05 9.05h-294.697v-34c0-2.63-1.07-5.21-2.93-7.07s-4.44-2.93-7.07-2.93h-66.159c-2.63 0-5.21 1.07-7.07 2.93s-2.93 4.44-2.93 7.07v34h-34c-2.63 0-5.21 1.07-7.07 2.93s-2.93 4.44-2.93 7.07v66.16c0 2.63 1.07 5.21 2.93 7.07s4.44 2.93 7.07 2.93h34v50.84c0 5.51 4.49 10 10 10s10-4.49 10-10v-50.84h46.16v232.679c0 2.64 1.07 5.21 2.93 7.07 1.86 1.87 4.44 2.93 7.07 2.93h232.678v46.16h-288.838v-148c0-5.51-4.49-10-10-10s-10 4.49-10 10v153.859l-2.54 2.54c-3.9 3.9-3.9 10.23 0 14.14 1.95 1.95 4.51 2.93 7.07 2.93s5.12-.98 7.07-2.93l2.54-2.54h294.697v34c0 2.63 1.07 5.21 2.93 7.07s4.44 2.93 7.07 2.93h66.159c2.63 0 5.21-1.07 7.07-2.93s2.93-4.44 2.93-7.07v-34h34c2.63 0 5.21-1.07 7.07-2.93s2.93-4.44 2.93-7.07v-66.16c0-2.63-1.07-5.21-2.93-7.07-1.86-1.859-4.44-2.929-7.07-2.929zm-408.996-332.839h46.16v24h-46.16zm66.159 332.839v-222.679h222.678v222.679zm332.837 66.159h-24v-46.16h24z"/><circle cx="68.502" cy="240.501" r="10"/><circle cx="443.498" cy="271.501" r="10"/></g></svg>